<?xml version="1.0" encoding="iso-8859-1"?>
<!-- Generator: Adobe Illustrator 19.0.0, SVG Export Plug-In . SVG Version: 6.00 Build 0)  -->
<svg version="1.1" id="Layer_1" xmlns="http://www.w3.org/2000/svg" xmlns:xlink="http://www.w3.org/1999/xlink" x="0px" y="0px"
	 viewBox="0 0 492.881 492.881" style="enable-background:new 0 0 492.881 492.881;" xml:space="preserve">
<g>
	<path style="fill:green;" d="M310.441,338.481c0,2.4-1.6,4-4,4h-264c-2.4,0-4-1.6-4-4l0,0c0-2.4,1.6-4,4-4h264
		C308.841,334.481,310.441,336.081,310.441,338.481L310.441,338.481z"/>
	<path style="fill:green;" d="M174.441,468.881c-2.4,0-4-1.6-4-4v-256c0-2.4,1.6-4,4-4l0,0c2.4,0,4,1.6,4,4v256
		C178.441,466.481,176.841,468.881,174.441,468.881L174.441,468.881z"/>
	<path style="fill:green;" d="M86.441,430.481c-1.6,1.6-4.8,1.6-7.2,0l0,0c-1.6-1.6-1.6-4.8,0-7.2l181.6-181.6
		c1.6-1.6,4.8-1.6,7.2,0l0,0c1.6,1.6,1.6,4.8,0,7.2L86.441,430.481z"/>
	<path style="fill:green;" d="M80.041,249.681c-1.6-1.6-1.6-4.8,0-7.2l0,0c1.6-1.6,4.8-1.6,7.2,0l181.6,181.6
		c1.6,1.6,1.6,4.8,0,7.2l0,0c-1.6,1.6-4.8,1.6-7.2,0L80.041,249.681z"/>
	<path style="fill:green;" d="M128.041,456.081c-0.8,2.4-4,4-6.4,2.4l0,0c-2.4-0.8-4-4-2.4-6.4l100.8-236c0.8-2.4,4-4,6.4-2.4l0,0
		c2.4,0.8,4,4,2.4,6.4L128.041,456.081z"/>
	<path style="fill:green;" d="M53.641,290.481c-2.4-0.8-4-4-2.4-6.4l0,0c0.8-2.4,4-4,6.4-2.4l236,100.8c2.4,0.8,4,4,2.4,6.4l0,0
		c-0.8,2.4-4,4-6.4,2.4L53.641,290.481z"/>
	<path style="fill:green;" d="M56.841,388.881c-2.4,0.8-5.6,0-6.4-2.4l0,0c-0.8-2.4,0-5.6,2.4-6.4l237.6-95.2
		c2.4-0.8,5.6,0,6.4,2.4l0,0c0.8,2.4,0,5.6-2.4,6.4L56.841,388.881z"/>
	<path style="fill:green;" d="M121.641,219.281c-0.8-2.4,0-5.6,2.4-6.4l0,0c2.4-0.8,5.6,0,6.4,2.4l95.2,237.6
		c0.8,2.4,0,5.6-2.4,6.4l0,0c-2.4,0.8-5.6,0-6.4-2.4L121.641,219.281z"/>
</g>
<path style="fill:#eee;" d="M173.641,181.681c-85.6,0-155.2,69.6-155.2,155.2s69.6,155.2,155.2,155.2s155.2-69.6,155.2-155.2
	C329.641,251.281,260.041,181.681,173.641,181.681z M173.641,465.681c-71.2,0-128.8-57.6-128.8-128.8s57.6-128.8,128.8-128.8
	s128.8,57.6,128.8,128.8S244.841,465.681,173.641,465.681z"/>
<path style="fill:#eee;" d="M173.641,492.881c85.6,0,155.2-69.6,155.2-155.2s-69.6-155.2-155.2-155.2 M173.641,208.081
	c71.2,0,128.8,57.6,128.8,128.8s-57.6,128.8-128.8,128.8"/>
<g>
	<circle style="fill:#eee;" cx="173.641" cy="336.881" r="10.4"/>
	<path style="fill:#eee;" d="M259.241,33.681c-3.2,19.2-44,28.8-90.4,21.6c-47.2-7.2-82.4-29.6-79.2-48.8
		c3.2-19.2,37.6,9.6,84.8,17.6C220.041,32.081,261.641,14.481,259.241,33.681z"/>
</g>
<path style="fill:#eee;" d="M172.841,24.081c47.2,8,88.8-9.6,86.4,9.6c-3.2,19.2-44,28.8-90.4,21.6"/>
<path style="fill:green;" d="M182.441,312.881c0,4-4,7.2-8,7.2l0,0c-4,0-8-3.2-8-7.2v-240.8c0-4,4-7.2,8-7.2l0,0c4,0,8,3.2,8,7.2
	V312.881z"/>
<path style="fill:#eee;" d="M424.041,392.081c-28,0-50.4,22.4-50.4,50.4s22.4,50.4,50.4,50.4s50.4-22.4,50.4-50.4
	S452.041,392.081,424.041,392.081z M424.041,474.481c-17.6,0-32-14.4-32-32s14.4-32,32-32s32,14.4,32,32
	C456.841,460.081,442.441,474.481,424.041,474.481z"/>
<circle style="fill:green;" cx="424.041" cy="442.481" r="8"/>
<path style="fill:#eee;" d="M460.041,393.681c-2.4,0-4.8-0.8-7.2-3.2c-8-8-17.6-12-28.8-12c-11.2,0-20.8,4-28.8,12
	c-4,4-10.4,4-14.4,0s-4-10.4,0-14.4c11.2-11.2,26.4-17.6,43.2-17.6c16,0,31.2,6.4,43.2,17.6c4,4,4,10.4,0,14.4
	C465.641,392.881,462.441,393.681,460.041,393.681z"/>
<path style="fill:green;" d="M427.241,345.681c0.8,0,0.8,0,1.6,0c-17.6-124.8-126.4-220.8-254.4-220.8v16
	c120,0,221.6,89.6,238.4,206.4C416.841,346.481,422.441,345.681,427.241,345.681z"/>
<g>
</g>
<g>
</g>
<g>
</g>
<g>
</g>
<g>
</g>
<g>
</g>
<g>
</g>
<g>
</g>
<g>
</g>
<g>
</g>
<g>
</g>
<g>
</g>
<g>
</g>
<g>
</g>
<g>
</g>
</svg>
